<svg width="130" height="40" viewBox="0 0 130 40" fill="none" xmlns="http://www.w3.org/2000/svg">
    <path d="M14 14C12.0667 14 10.4167 13.3167 9.05 11.95C7.68333 10.5833 7 8.93333 7 7C7 5.06667 7.68333 3.41667 9.05 2.05C10.4167 0.683333 12.0667 0 14 0C15.9333 0 17.5833 0.683333 18.95 2.05C20.3167 3.41667 21 5.06667 21 7C21 8.93333 20.3167 10.5833 18.95 11.95C17.5833 13.3167 15.9333 14 14 14ZM14 10C14.8333 10 15.5417 9.70833 16.125 9.125C16.7083 8.54167 17 7.83333 17 7C17 6.16667 16.7083 5.45833 16.125 4.875C15.5417 4.29167 14.8333 4 14 4C13.1667 4 12.4583 4.29167 11.875 4.875C11.2917 5.45833 11 6.16667 11 7C11 7.83333 11.2917 8.54167 11.875 9.125C12.4583 9.70833 13.1667 10 14 10ZM14 40L2 28C1.33333 27.3333 0.833333 26.5833 0.5 25.75C0.166667 24.9167 0 24 0 23C0 21.0333 0.675 19.375 2.025 18.025C3.375 16.675 5.03333 16 7 16C7.96667 16 8.85833 16.1833 9.675 16.55C10.4917 16.9167 11.2333 17.4333 11.9 18.1L14 20.2L16.1 18.1C16.7667 17.4333 17.5083 16.9167 18.325 16.55C19.1417 16.1833 20.0333 16 21 16C22.9667 16 24.625 16.675 25.975 18.025C27.325 19.375 28 21.0333 28 23C28 24 27.8333 24.9167 27.5 25.75C27.1667 26.5833 26.6667 27.3333 26 28L14 40ZM14 34.3L23.1 25.2C23.4 24.9 23.625 24.5583 23.775 24.175C23.925 23.7917 24 23.4 24 23C24 22.2 23.7167 21.5 23.15 20.9C22.5833 20.3 21.8667 20 21 20C20.6 20 20.2417 20.0583 19.925 20.175C19.6083 20.2917 19.3 20.5 19 20.8L14 25.8L9 20.8C8.8 20.6 8.54167 20.4167 8.225 20.25C7.90833 20.0833 7.5 20 7 20C6.13333 20 5.41667 20.3 4.85 20.9C4.28333 21.5 4 22.2 4 23C4 23.4 4.08333 23.775 4.25 24.125C4.41667 24.475 4.63333 24.8 4.9 25.1L14 34.3Z" fill="#fff"/>
    <path d="M34.424 36C34.2213 36 34.072 35.9573 33.976 35.872C33.8907 35.776 33.848 35.6267 33.848 35.424V33.52C33.848 33.3173 33.8907 33.1733 33.976 33.088C34.072 32.992 34.2213 32.944 34.424 32.944H36.008V27.568H34.424C34.2213 27.568 34.072 27.5253 33.976 27.44C33.8907 27.344 33.848 27.1947 33.848 26.992V25.056C33.848 24.8533 33.8907 24.7093 33.976 24.624C34.072 24.528 34.2213 24.48 34.424 24.48H41.24C41.4427 24.48 41.5867 24.528 41.672 24.624C41.768 24.7093 41.816 24.8533 41.816 25.056V26.992C41.816 27.1947 41.768 27.344 41.672 27.44C41.5867 27.5253 41.4427 27.568 41.24 27.568H39.688V32.944H41.24C41.4427 32.944 41.5867 32.992 41.672 33.088C41.768 33.1733 41.816 33.3173 41.816 33.52V35.424C41.816 35.6267 41.768 35.776 41.672 35.872C41.5867 35.9573 41.4427 36 41.24 36H34.424ZM40.376 34.56V34.4H37.928V26.08H40.376V25.92H35.288V26.08H37.768V34.4H35.288V34.56H40.376ZM51.1835 26.048C51.1302 25.9947 51.0875 25.9573 51.0555 25.936C51.0235 25.9147 50.9862 25.904 50.9435 25.904C50.9008 25.904 50.8582 25.92 50.8155 25.952C50.7728 25.984 50.7515 26.032 50.7515 26.096V34.56H50.9115V26.128C50.9115 26.1173 50.9115 26.1067 50.9115 26.096C50.9222 26.0853 50.9328 26.08 50.9435 26.08C50.9542 26.08 50.9648 26.0853 50.9755 26.096C50.9968 26.1067 51.0128 26.1173 51.0235 26.128L57.0715 32.912V34.56H57.2315V25.92H57.0715V32.672L51.1835 26.048ZM52.0475 36H49.6475C49.4448 36 49.2955 35.9573 49.1995 35.872C49.1142 35.776 49.0715 35.6267 49.0715 35.424V25.056C49.0715 24.8533 49.1142 24.7093 49.1995 24.624C49.2955 24.528 49.4448 24.48 49.6475 24.48H51.3115C51.5142 24.48 51.6848 24.512 51.8235 24.576C51.9728 24.64 52.1168 24.752 52.2555 24.912L55.3595 28.464V25.056C55.3595 24.8533 55.4022 24.7093 55.4875 24.624C55.5835 24.528 55.7328 24.48 55.9355 24.48H58.3355C58.5382 24.48 58.6822 24.528 58.7675 24.624C58.8635 24.7093 58.9115 24.8533 58.9115 25.056V35.424C58.9115 35.6267 58.8635 35.776 58.7675 35.872C58.6822 35.9573 58.5382 36 58.3355 36H55.9355C55.7328 36 55.5835 35.9573 55.4875 35.872C55.4022 35.776 55.3595 35.6267 55.3595 35.424V33.456L52.6235 30.144V35.424C52.6235 35.6267 52.5755 35.776 52.4795 35.872C52.3942 35.9573 52.2502 36 52.0475 36ZM72.0304 29.84C71.8384 29.84 71.6997 29.7973 71.6144 29.712C71.529 29.6267 71.3957 29.4453 71.2144 29.168L69.2624 26.192C69.1984 26.0853 69.1237 26.016 69.0384 25.984C68.953 25.9413 68.8677 25.92 68.7824 25.92H68.5104C68.3717 25.92 68.265 25.9627 68.1904 26.048C68.1264 26.1227 68.0944 26.2453 68.0944 26.416V34.56H68.2544V26.416C68.2544 26.3307 68.2704 26.256 68.3024 26.192C68.3344 26.1173 68.4037 26.08 68.5104 26.08H68.7504C68.825 26.08 68.889 26.0907 68.9424 26.112C69.0064 26.1333 69.0704 26.1973 69.1344 26.304L71.0864 29.248C71.2784 29.536 71.4224 29.7333 71.5184 29.84C71.625 29.9467 71.7957 30 72.0304 30C72.265 30 72.4304 29.9467 72.5264 29.84C72.633 29.7333 72.7824 29.536 72.9744 29.248L74.9264 26.304C74.9904 26.1973 75.049 26.1333 75.1024 26.112C75.1557 26.0907 75.2197 26.08 75.2944 26.08H75.5344C75.641 26.08 75.7104 26.1173 75.7424 26.192C75.785 26.256 75.8064 26.3307 75.8064 26.416V34.56H75.9664V26.416C75.9664 26.2453 75.929 26.1227 75.8544 26.048C75.7904 25.9627 75.6837 25.92 75.5344 25.92H75.2624C75.177 25.92 75.0917 25.9413 75.0064 25.984C74.9317 26.016 74.8624 26.0853 74.7984 26.192L72.8464 29.168C72.665 29.4453 72.5317 29.6267 72.4464 29.712C72.361 29.7973 72.2224 29.84 72.0304 29.84ZM69.3584 36H66.9744C66.7717 36 66.6224 35.9573 66.5264 35.872C66.441 35.776 66.3984 35.6267 66.3984 35.424V25.056C66.3984 24.8533 66.441 24.7093 66.5264 24.624C66.6224 24.528 66.7717 24.48 66.9744 24.48H69.5504C69.721 24.48 69.8597 24.5173 69.9664 24.592C70.0837 24.6667 70.1904 24.7893 70.2864 24.96L71.7264 27.568C71.7797 27.664 71.8224 27.7333 71.8544 27.776C71.897 27.8187 71.9504 27.84 72.0144 27.84H72.1584C72.2224 27.84 72.2704 27.8187 72.3024 27.776C72.345 27.7333 72.393 27.664 72.4464 27.568L73.8704 24.96C73.9664 24.7893 74.0677 24.6667 74.1744 24.592C74.2917 24.5173 74.4357 24.48 74.6064 24.48H77.1984C77.401 24.48 77.545 24.528 77.6304 24.624C77.7264 24.7093 77.7744 24.8533 77.7744 25.056V35.424C77.7744 35.6267 77.7264 35.776 77.6304 35.872C77.545 35.9573 77.401 36 77.1984 36H74.7344C74.5317 36 74.3824 35.9573 74.2864 35.872C74.201 35.776 74.1584 35.6267 74.1584 35.424V29.792L73.2144 31.536C73.1184 31.7173 73.001 31.8507 72.8624 31.936C72.7344 32.0107 72.569 32.048 72.3664 32.048H71.7264C71.5237 32.048 71.353 32.0107 71.2144 31.936C71.0864 31.8507 70.9744 31.7173 70.8784 31.536L69.9344 29.792V35.424C69.9344 35.6267 69.8864 35.776 69.7904 35.872C69.705 35.9573 69.561 36 69.3584 36ZM95.0645 32.976C95.0645 33.4667 94.9898 33.9147 94.8405 34.32C94.7018 34.7147 94.4458 35.056 94.0725 35.344C93.7098 35.6213 93.2085 35.84 92.5685 36C91.9285 36.16 91.1125 36.24 90.1205 36.24C89.1285 36.24 88.3125 36.16 87.6725 36C87.0325 35.84 86.5258 35.6213 86.1525 35.344C85.7898 35.056 85.5338 34.7147 85.3845 34.32C85.2458 33.9147 85.1765 33.4667 85.1765 32.976V25.056C85.1765 24.8533 85.2192 24.7093 85.3045 24.624C85.4005 24.528 85.5498 24.48 85.7525 24.48H88.2645C88.4672 24.48 88.6112 24.528 88.6965 24.624C88.7925 24.7093 88.8405 24.8533 88.8405 25.056V32.352C88.8405 32.5653 88.9205 32.7467 89.0805 32.896C89.2405 33.0347 89.5978 33.104 90.1525 33.104C90.7178 33.104 91.0805 33.0347 91.2405 32.896C91.4005 32.7467 91.4805 32.5653 91.4805 32.352V25.056C91.4805 24.8533 91.5232 24.7093 91.6085 24.624C91.7045 24.528 91.8538 24.48 92.0565 24.48H94.4885C94.6912 24.48 94.8352 24.528 94.9205 24.624C95.0165 24.7093 95.0645 24.8533 95.0645 25.056V32.976ZM86.9365 25.92V32.592C86.9365 33.232 87.1552 33.7547 87.5925 34.16C88.0405 34.5547 88.8885 34.752 90.1365 34.752C91.3845 34.752 92.2325 34.5547 92.6805 34.16C93.1285 33.7547 93.3525 33.232 93.3525 32.592V25.92H93.1925V32.592C93.1925 33.1893 92.9792 33.6747 92.5525 34.048C92.1258 34.4107 91.3205 34.592 90.1365 34.592C88.9525 34.592 88.1472 34.4107 87.7205 34.048C87.3045 33.6747 87.0965 33.1893 87.0965 32.592V25.92H86.9365ZM104.586 26.048C104.533 25.9947 104.49 25.9573 104.458 25.936C104.426 25.9147 104.389 25.904 104.346 25.904C104.303 25.904 104.261 25.92 104.218 25.952C104.175 25.984 104.154 26.032 104.154 26.096V34.56H104.314V26.128C104.314 26.1173 104.314 26.1067 104.314 26.096C104.325 26.0853 104.335 26.08 104.346 26.08C104.357 26.08 104.367 26.0853 104.378 26.096C104.399 26.1067 104.415 26.1173 104.426 26.128L110.474 32.912V34.56H110.634V25.92H110.474V32.672L104.586 26.048ZM105.45 36H103.05C102.847 36 102.698 35.9573 102.602 35.872C102.517 35.776 102.474 35.6267 102.474 35.424V25.056C102.474 24.8533 102.517 24.7093 102.602 24.624C102.698 24.528 102.847 24.48 103.05 24.48H104.714C104.917 24.48 105.087 24.512 105.226 24.576C105.375 24.64 105.519 24.752 105.658 24.912L108.762 28.464V25.056C108.762 24.8533 108.805 24.7093 108.89 24.624C108.986 24.528 109.135 24.48 109.338 24.48H111.738C111.941 24.48 112.085 24.528 112.17 24.624C112.266 24.7093 112.314 24.8533 112.314 25.056V35.424C112.314 35.6267 112.266 35.776 112.17 35.872C112.085 35.9573 111.941 36 111.738 36H109.338C109.135 36 108.986 35.9573 108.89 35.872C108.805 35.776 108.762 35.6267 108.762 35.424V33.456L106.026 30.144V35.424C106.026 35.6267 105.978 35.776 105.882 35.872C105.797 35.9573 105.653 36 105.45 36ZM127.801 36H120.377C120.174 36 120.025 35.9573 119.929 35.872C119.844 35.776 119.801 35.6267 119.801 35.424V25.056C119.801 24.8533 119.844 24.7093 119.929 24.624C120.025 24.528 120.174 24.48 120.377 24.48H127.801C128.004 24.48 128.148 24.528 128.233 24.624C128.329 24.7093 128.377 24.8533 128.377 25.056V26.928C128.377 27.1307 128.329 27.28 128.233 27.376C128.148 27.4613 128.004 27.504 127.801 27.504H123.385V28.736H126.505C126.708 28.736 126.852 28.784 126.937 28.88C127.033 28.9653 127.081 29.1093 127.081 29.312V31.024C127.081 31.2267 127.033 31.376 126.937 31.472C126.852 31.5573 126.708 31.6 126.505 31.6H123.385V32.976H127.801C128.004 32.976 128.148 33.024 128.233 33.12C128.329 33.2053 128.377 33.3493 128.377 33.552V35.424C128.377 35.6267 128.329 35.776 128.233 35.872C128.148 35.9573 128.004 36 127.801 36ZM126.937 34.4H121.705V30.256H125.641V30.096H121.705V26.08H126.937V25.92H121.545V34.56H126.937V34.4Z" fill="#ffffff"/>
</svg>
