<svg width="130" height="40" fill="none" xmlns="http://www.w3.org/2000/svg"><path d="M14 14c-1.933 0-3.583-.683-4.95-2.05C7.683 10.583 7 8.933 7 7c0-1.933.683-3.583 2.05-4.95C10.417.683 12.067 0 14 0c1.933 0 3.583.683 4.95 2.05C20.317 3.417 21 5.067 21 7c0 1.933-.683 3.583-2.05 4.95C17.583 13.317 15.933 14 14 14Zm0-4c.833 0 1.542-.292 2.125-.875A2.893 2.893 0 0 0 17 7c0-.833-.292-1.542-.875-2.125A2.893 2.893 0 0 0 14 4c-.833 0-1.542.292-2.125.875A2.893 2.893 0 0 0 11 7c0 .833.292 1.542.875 2.125A2.893 2.893 0 0 0 14 10Zm0 30L2 28a6.66 6.66 0 0 1-1.5-2.25C.167 24.917 0 24 0 23c0-1.967.675-3.625 2.025-4.975C3.375 16.675 5.033 16 7 16c.967 0 1.858.183 2.675.55A7.446 7.446 0 0 1 11.9 18.1l2.1 2.1 2.1-2.1a7.446 7.446 0 0 1 2.225-1.55A6.455 6.455 0 0 1 21 16c1.967 0 3.625.675 4.975 2.025C27.325 19.375 28 21.033 28 23c0 1-.167 1.917-.5 2.75A6.66 6.66 0 0 1 26 28L14 40Zm0-5.7 9.1-9.1c.3-.3.525-.642.675-1.025.15-.383.225-.775.225-1.175 0-.8-.283-1.5-.85-2.1-.567-.6-1.283-.9-2.15-.9-.4 0-.758.058-1.075.175-.317.117-.625.325-.925.625l-5 5-5-5c-.2-.2-.458-.383-.775-.55C7.908 20.083 7.5 20 7 20c-.867 0-1.583.3-2.15.9-.567.6-.85 1.3-.85 2.1 0 .4.083.775.25 1.125.167.35.383.675.65.975l9.1 9.2ZM34.424 36c-.203 0-.352-.043-.448-.128-.085-.096-.128-.245-.128-.448V33.52c0-.203.043-.347.128-.432.096-.096.245-.144.448-.144h1.584v-5.376h-1.584c-.203 0-.352-.043-.448-.128-.085-.096-.128-.245-.128-.448v-1.936c0-.203.043-.347.128-.432.096-.096.245-.144.448-.144h6.816c.203 0 .347.048.432.144.096.085.144.23.144.432v1.936c0 .203-.048.352-.144.448-.085.085-.23.128-.432.128h-1.552v5.376h1.552c.203 0 .347.048.432.144.096.085.144.23.144.432v1.904c0 .203-.048.352-.144.448-.085.085-.23.128-.432.128h-6.816Zm5.952-1.44v-.16h-2.448v-8.32h2.448v-.16h-5.088v.16h2.48v8.32h-2.48v.16h5.088Zm10.808-8.512a.935.935 0 0 0-.128-.112.197.197 0 0 0-.112-.032.213.213 0 0 0-.129.048c-.042.032-.063.08-.063.144v8.464h.16v-8.464c.01-.01.02-.016.032-.016.01 0 .02.005.031.016.022.01.038.021.048.032l6.048 6.784v1.648h.16v-8.64h-.16v6.752l-5.887-6.624ZM52.047 36h-2.4c-.203 0-.353-.043-.449-.128-.085-.096-.127-.245-.127-.448V25.056c0-.203.042-.347.127-.432.096-.096.246-.144.449-.144h1.663c.203 0 .374.032.513.096.149.064.293.176.431.336l3.104 3.552v-3.408c0-.203.043-.347.128-.432.096-.096.246-.144.448-.144h2.4c.203 0 .347.048.432.144.096.085.144.23.144.432v10.368c0 .203-.047.352-.144.448-.085.085-.229.128-.431.128h-2.4c-.203 0-.352-.043-.449-.128-.085-.096-.128-.245-.128-.448v-1.968l-2.736-3.312v5.28c0 .203-.047.352-.143.448-.086.085-.23.128-.432.128Zm19.982-6.16c-.192 0-.33-.043-.416-.128-.085-.085-.218-.267-.4-.544l-1.952-2.976a.46.46 0 0 0-.224-.208.568.568 0 0 0-.256-.064h-.272c-.138 0-.245.043-.32.128-.064.075-.096.197-.096.368v8.144h.16v-8.144c0-.085.016-.16.048-.224.032-.075.102-.112.208-.112h.24c.075 0 .139.01.192.032.064.021.128.085.192.192l1.952 2.944c.192.288.336.485.432.592.107.107.278.16.512.16.235 0 .4-.053.496-.16.107-.107.256-.304.448-.592l1.952-2.944c.064-.107.123-.17.176-.192a.517.517 0 0 1 .192-.032h.24c.107 0 .176.037.208.112a.395.395 0 0 1 .064.224v8.144h.16v-8.144c0-.17-.037-.293-.112-.368-.064-.085-.17-.128-.32-.128h-.272a.567.567 0 0 0-.256.064.483.483 0 0 0-.208.208l-1.952 2.976c-.181.277-.314.459-.4.544-.085.085-.224.128-.416.128ZM69.358 36h-2.384c-.202 0-.352-.043-.448-.128-.085-.096-.128-.245-.128-.448V25.056c0-.203.043-.347.128-.432.096-.096.246-.144.448-.144h2.576c.171 0 .31.037.416.112.118.075.224.197.32.368l1.44 2.608c.054.096.096.165.128.208a.217.217 0 0 0 .16.064h.144c.064 0 .112-.021.144-.064a.977.977 0 0 0 .144-.208l1.424-2.608c.096-.17.198-.293.304-.368a.788.788 0 0 1 .432-.112h2.592c.203 0 .347.048.432.144.096.085.144.23.144.432v10.368c0 .203-.048.352-.144.448-.085.085-.229.128-.432.128h-2.464c-.202 0-.352-.043-.448-.128-.085-.096-.128-.245-.128-.448v-5.632l-.944 1.744a1.006 1.006 0 0 1-.352.4.975.975 0 0 1-.496.112h-.64c-.202 0-.373-.037-.512-.112a1.065 1.065 0 0 1-.336-.4l-.944-1.744v5.632c0 .203-.048.352-.144.448-.085.085-.229.128-.432.128Zm25.706-3.024c0 .49-.074.939-.223 1.344-.14.395-.395.736-.768 1.024-.363.277-.864.496-1.504.656-.64.16-1.457.24-2.448.24-.992 0-1.808-.08-2.448-.24-.64-.16-1.147-.379-1.52-.656a2.37 2.37 0 0 1-.769-1.024 4.13 4.13 0 0 1-.207-1.344v-7.92c0-.203.042-.347.127-.432.096-.096.246-.144.448-.144h2.513c.202 0 .346.048.431.144.097.085.145.23.145.432v7.296c0 .213.08.395.24.544.16.139.517.208 1.072.208.565 0 .927-.07 1.087-.208.16-.15.24-.33.24-.544v-7.296c0-.203.043-.347.129-.432.096-.096.245-.144.448-.144h2.431c.203 0 .347.048.433.144.095.085.143.23.143.432v7.92Zm-8.127-7.056v6.672c0 .64.218 1.163.656 1.568.447.395 1.295.592 2.543.592 1.249 0 2.097-.197 2.544-.592.448-.405.672-.928.672-1.568V25.92h-.16v6.672c0 .597-.213 1.083-.64 1.456-.426.363-1.232.544-2.416.544-1.183 0-1.989-.181-2.415-.544-.416-.373-.624-.859-.624-1.456V25.92h-.16Zm17.649.128a.918.918 0 0 0-.128-.112.197.197 0 0 0-.112-.032.213.213 0 0 0-.128.048c-.043.032-.064.08-.064.144v8.464h.16v-8.464c.011-.01.021-.016.032-.016s.021.005.032.016c.021.01.037.021.048.032l6.048 6.784v1.648h.16v-8.64h-.16v6.752l-5.888-6.624ZM105.45 36h-2.4c-.203 0-.352-.043-.448-.128-.085-.096-.128-.245-.128-.448V25.056c0-.203.043-.347.128-.432.096-.096.245-.144.448-.144h1.664c.203 0 .373.032.512.096.149.064.293.176.432.336l3.104 3.552v-3.408c0-.203.043-.347.128-.432.096-.096.245-.144.448-.144h2.4c.203 0 .347.048.432.144.096.085.144.23.144.432v10.368c0 .203-.048.352-.144.448-.085.085-.229.128-.432.128h-2.4c-.203 0-.352-.043-.448-.128-.085-.096-.128-.245-.128-.448v-1.968l-2.736-3.312v5.28c0 .203-.048.352-.144.448-.085.085-.229.128-.432.128Zm22.351 0h-7.424c-.203 0-.352-.043-.448-.128-.085-.096-.128-.245-.128-.448V25.056c0-.203.043-.347.128-.432.096-.096.245-.144.448-.144h7.424c.203 0 .347.048.432.144.096.085.144.23.144.432v1.872c0 .203-.048.352-.144.448-.085.085-.229.128-.432.128h-4.416v1.232h3.12c.203 0 .347.048.432.144.096.085.144.23.144.432v1.712c0 .203-.048.352-.144.448-.085.085-.229.128-.432.128h-3.12v1.376h4.416c.203 0 .347.048.432.144.096.085.144.23.144.432v1.872c0 .203-.048.352-.144.448-.085.085-.229.128-.432.128Zm-.864-1.6h-5.232v-4.144h3.936v-.16h-3.936V26.08h5.232v-.16h-5.392v8.64h5.392v-.16Z" fill="#2399B5"/></svg>